<?xml version="1.0" encoding="UTF-8" standalone="no"?>
<?xml-stylesheet type="text/css" href="../css/svg_style.css"?>
<svg
   xmlns:dc="http://purl.org/dc/elements/1.1/"
   xmlns:cc="http://creativecommons.org/ns#"
   xmlns:rdf="http://www.w3.org/1999/02/22-rdf-syntax-ns#"
   xmlns:svg="http://www.w3.org/2000/svg"
   xmlns="http://www.w3.org/2000/svg"
   version="1.1"
   id="svg10"
   width="79"
   height="76"
   viewBox="0 0 79 76">

  <g id="layer1">
    <g
       id="g937"
       style="display:inline">
      <path
         id="path32"
         style="fill:#000000;fill-opacity:1;stroke:#000000;stroke-width:1px;stroke-linecap:butt;stroke-linejoin:miter;stroke-opacity:1"
         d="M 2.9960938,0 C 1.0007997,0 0,1.0007997 0,2.9960938 V 73 c 0,2 1,3 3,3 h 73 c 2,0 3,-1 3,-3 V 2.9960938 C 79,1.0007997 78,0 76,0 Z M 4,4 H 75 V 72 H 4 Z" />
    </g>
  </g>
  <g
     id="layer2"
     style="display:inline">
    <circle
       style="opacity:1"
       id="path880"
       cx="14"
       cy="7.5078101"
       r="1" />
    <circle
       id="path880-9"
       cx="19"
       cy="7.5078101"
       r="1" />
    <circle
       id="path880-5"
       cx="9"
       cy="7.5078101"
       r="1" />
    <path
       style="stroke-width:4;stroke-linecap:butt;stroke-linejoin:miter;stroke-miterlimit:4;stroke-dasharray:none;stroke-opacity:1"
       d="M 4,13 H 75"
       id="path915" />
    <path
       style="stroke-width:3;stroke-linecap:round;stroke-linejoin:round;stroke-miterlimit:4;stroke-dasharray:none;stroke-opacity:1"
       d="m 30,34 -8,8 8,8"
       id="path968" />
    <path
       style="stroke-width:3;stroke-linecap:round;stroke-linejoin:miter;stroke-miterlimit:4;stroke-dasharray:none;stroke-opacity:1"
       d="M 43,31 36,54"
       id="path970" />
    <path
       style="stroke-width:3;stroke-linecap:round;stroke-linejoin:round;stroke-miterlimit:4;stroke-dasharray:none;stroke-opacity:1"
       d="m 49,34 8,8 -8,8"
       id="path972" />
  </g>
</svg>
